<?xml version="1.0" encoding="utf-8"?>
<!-- Generator: Adobe Illustrator 26.0.1, SVG Export Plug-In . SVG Version: 6.00 Build 0)  -->
<svg version="1.1" xmlns="http://www.w3.org/2000/svg" xmlns:xlink="http://www.w3.org/1999/xlink" x="0px" y="0px"
	 viewBox="0 0 1366 768" style="enable-background:new 0 0 1366 768;" xml:space="preserve">
<style type="text/css">
	.st0{fill:#C3C3C3;}
	.st1{fill:#A9A9A9;}
	.st2{fill:#EAEAEA;}
	.st3{fill:#7F7F7F;}
	.st4{fill:#DEDEDE;}
	.st5{fill:#DFDFDF;}
	.st6{fill:#B4B7B7;}
	.st7{fill:#544C4C;}
	.st8{fill:#C1C1C1;}
	.st9{fill:#BFBFBF;}
	.st10{fill:#E0E2E2;}
	.st11{fill:#535858;}
	.st12{fill:#7E8282;}
	.st13{fill:#DCD5D5;}
	.st14{fill:#968D8D;}
	.st15{fill:#FFFFFF;}
	.st16{fill:#CBCBCB;}
	.st17{fill:#96A0A0;}
	.st18{fill:#BFBCBC;}
	.st19{fill:#726C6C;}
	.st20{fill:#626565;}
	.st21{fill:#675A5A;}
	.st22{fill:#9E9C9C;}
	.st23{fill:#4F6161;}
	.st24{fill:#A86868;}
	.st25{fill:#8E8585;}
	.st26{fill:#6F3030;}
	.st27{fill:#986C6C;}
	.st28{fill:#898484;}
	.st29{fill:#B6ADAD;}
	.st30{fill:#8C7979;}
	.st31{fill:#604040;}
</style>
<g id="Camada_1">
	<g>
		<g>
			<path class="st0" d="M-3.86,711.82c-0.26-0.02-0.49-0.11-0.69-0.28c0-3.8,0-7.59,0-11.39c0.22-0.14,0.45-0.23,0.71-0.26
				C-1.68,703.87-1.65,707.85-3.86,711.82z"/>
			<path class="st1" d="M675.46,31.94c3.21,0,6.43,0,9.64,0c0.28,0.53,0.17,0.97-0.31,1.32c-3.01,1.13-6.01,1.13-9.02,0.01
				C675.29,32.91,675.19,32.47,675.46,31.94z"/>
			<path class="st2" d="M389.78,735.14c0,0.31,0.01,0.62,0.01,0.92c-3.21,0-6.43,0-9.64,0c0-0.31,0.01-0.62,0.01-0.92
				C383.36,733.28,386.57,733.28,389.78,735.14z"/>
			<path class="st1" d="M692.99,31.94c2.92,0,5.84,0,8.76,0c0.28,0.52,0.18,0.96-0.29,1.31c-2.72,1.11-5.45,1.11-8.18,0.01
				C692.81,32.9,692.71,32.46,692.99,31.94z"/>
			<path class="st3" d="M692.99,31.94c0.01,0.24,0.03,0.48,0.05,0.73c-2.67,2.02-5.33,2.05-7.98-0.02c0-0.24,0.02-0.47,0.05-0.7
				C687.73,31.94,690.36,31.94,692.99,31.94z"/>
			<path class="st4" d="M714.02,31.94c-0.02,0.26-0.01,0.51,0.01,0.77c-2.08,1.86-4.36,1.48-6.68,0.58c-0.5-0.35-0.62-0.8-0.35-1.35
				C709.35,31.94,711.68,31.94,714.02,31.94z"/>
			<path class="st5" d="M663.18,32.71c0.03-0.26,0.03-0.52,0.01-0.77c2.34,0,4.67,0,7.01,0c0.27,0.55,0.15,0.99-0.35,1.34
				C667.54,34.19,665.26,34.57,663.18,32.71z"/>
			<path class="st6" d="M1360.73,507.48c0,1.75,0,3.5,0,5.25c-0.47,0.29-0.89,0.22-1.25-0.2c-0.87-1.62-0.87-3.23-0.01-4.85
				C1359.83,507.26,1360.25,507.19,1360.73,507.48z"/>
			<path class="st7" d="M1360.73,496.97c0,1.75,0,3.5,0,5.25c-0.47,0.29-0.89,0.22-1.25-0.2c-0.87-1.62-0.87-3.23-0.01-4.85
				C1359.83,496.75,1360.25,496.68,1360.73,496.97z"/>
			<path class="st8" d="M670.18,32.68c0.01-0.25,0.02-0.49,0.02-0.74c1.75,0,3.51,0,5.26,0c0,0.25-0.01,0.5-0.02,0.74
				C673.69,34.28,671.94,34.28,670.18,32.68z"/>
			<path class="st9" d="M707.01,31.94c0.01,0.24,0.02,0.49,0.02,0.73c-1.76,1.61-3.51,1.61-5.26-0.01
				c-0.01-0.24-0.01-0.49-0.02-0.73C703.5,31.94,705.26,31.94,707.01,31.94z"/>
			<path class="st10" d="M1360,512.77c0.25,0.04,0.49,0.03,0.73-0.03c0,1.46,0,2.92,0,4.38l-0.36,0.05l-0.36-0.03
				C1358.58,515.69,1358.58,514.23,1360,512.77z"/>
			<path class="st11" d="M1360.13,502.25c0.2,0.01,0.4,0,0.6-0.02c0,0.88,0,1.75,0,2.63c-0.46,0.3-0.86,0.23-1.2-0.2
				C1359.16,503.71,1359.07,502.84,1360.13,502.25z"/>
			<path class="st12" d="M1359.98,504.92c0.25-0.01,0.5-0.03,0.75-0.06c0,0.88,0,1.75,0,2.63l-0.36,0.08l-0.36-0.02
				C1359.12,506.68,1359.13,505.8,1359.98,504.92z"/>
			<path class="st13" d="M1359.97,493.45c0.26-0.01,0.51,0,0.76,0.02c0,0.58,0,1.17,0,1.75c-0.38,0.27-0.75,0.25-1.1-0.06
				C1359.36,494.52,1359.4,493.93,1359.97,493.45z"/>
			<path class="st14" d="M1359.99,495.16c0.25-0.02,0.5,0,0.74,0.06c0,0.58,0,1.17,0,1.75c-0.24-0.06-0.48-0.09-0.73-0.1
				C1359.42,496.31,1359.42,495.74,1359.99,495.16z"/>
			<path class="st15" d="M694.81,587.78c4.56-2.01,7.31-4.94,9.71-8.27c2.48-3.45,4.27-7.29,5.97-11.16
				c1.71-3.87,3.28-7.8,5.47-11.43c7.47-12.38,25.05-12.81,33.32-0.84c2.35,3.4,3.77,7.22,5.05,11.1
				c1.73,5.26,3.08,10.64,5.31,15.72c1.99,4.53,4.39,8.79,8.84,12.43c0.2-2.42,0.41-4.25,0.49-6.09
				c1.31-29.29,3.35-58.56,3.68-87.89c0.04-3.82,0.49-7.56,1.8-11.17c1.84-5.11,5.46-8.12,10.82-9.05c2.89-0.5,5.77-0.63,8.71-0.31
				c10.49,1.13,20.98,0.97,31.47-0.13c1.88-0.2,3.8-0.31,5.68-0.14c6.87,0.61,10.21,4.01,10.79,10.9c0.34,4.08,0.01,8.17-0.24,12.25
				c-1.05,17.04-2.14,34.07-3.15,51.11c-1.43,24.18-2.81,48.36-4.17,72.54c-0.98,17.33-1.9,34.67-2.83,52.01
				c-0.63,11.65-1.24,23.31-1.9,34.96c-0.08,1.45-0.35,2.89-0.65,4.32c-1.38,6.5-4.27,8.8-10.78,7.87
				c-5.87-0.83-11.66-0.49-17.45,0.3c-3.34,0.46-6.68,0.61-10.04,0.73c-9.73,0.35-16.42-4.21-20.54-12.78
				c-3.6-7.48-6.95-15.09-10.58-22.55c-7.65-15.72-15.4-31.4-23.13-47.08c-0.3-0.6-0.42-1.38-1.31-1.73
				c-1.26,0.89-1.39,2.42-1.92,3.71c-8.6,21.19-17.53,42.25-25.43,63.72c-0.2,0.55-0.47,1.07-0.7,1.6
				c-6.04,13.99-15.66,19.36-30.73,17.04c-6.63-1.02-13.23-2.17-19.85-3.3c-3.63-0.62-7.25-0.68-10.9-0.17
				c-1.15,0.16-2.34,0.22-3.49,0.12c-6.04-0.5-8.86-3.14-9.77-9.21c-0.28-1.87-0.61-3.81-0.39-5.65
				c1.33-10.82-0.22-21.57-0.65-32.34c-0.56-14.14-1.53-28.26-2.19-42.4c-1.57-33.67-3.01-67.34-5.16-100.97
				c-0.68-10.63-1.41-21.25-2-31.89c-0.18-3.2-0.19-6.44,0.15-9.62c0.73-6.8,4.08-10.42,10.7-12.17c3.56-0.94,7.22-1.18,10.85-1.26
				c9.05-0.21,18.1-0.17,27.15-0.26c3.09-0.03,6.12,0.44,9.13,0.97c7.02,1.24,11.55,5.17,13.1,12.31c0.99,4.58,1.57,9.21,1.59,13.88
				c0.08,24.96,0.11,49.91,0.16,74.87C694.82,583.96,694.81,585.55,694.81,587.78z"/>
			<path class="st15" d="M1359.99,495.16c0,0.57,0.01,1.14,0.01,1.72c0.04,1.79,0.08,3.58,0.12,5.37c-0.32,0.87-0.29,1.77-0.14,2.67
				c0.01,0.88,0.02,1.75,0.03,2.63c-0.16,1.74-0.33,3.49-0.02,5.23c0,1.46,0.01,2.91,0.01,4.37c-0.62,16.61-1.28,33.23-1.86,49.84
				c-1.17,33.38-2.33,66.76-3.41,100.15c-0.49,15.16-0.77,30.33-1.18,45.49c-0.1,3.8-0.51,7.59-1.87,11.17
				c-2.2,5.8-6.65,8.28-12.78,7.28c-0.72-0.12-1.52-0.08-2.15-0.39c-7.28-3.67-14.79-2.23-22.31-1.17c-2.44,0.35-4.95,0.47-7.42,0.4
				c-6.71-0.17-10.42-3.15-12.31-9.68c-0.94-3.25-1.21-6.61-1.18-9.96c0.17-18.38,0.44-36.76,0.65-55.13c0.04-3.64,0.25-7.3,0-10.93
				c-0.43-6.32-3.61-9.98-9.74-11.24c-3.28-0.68-6.64-0.95-10.01-0.4c-4.87,0.78-7.56,3.36-8.29,8.22c-0.24,1.58-0.32,3.2-0.32,4.8
				c0.01,13.42,0.08,26.84,0.08,40.26c0,6,0.72,11.94,1.45,17.87c0.45,3.67,0.31,7.27-0.36,10.88c-1.19,6.41-4.88,10.38-11.27,11.87
				c-3.45,0.8-6.94,0.91-10.44,0.86c-7.15-0.09-14.3-0.27-21.37,1.2c-2.3,0.48-4.64,0.23-6.96-0.2c-4.39-0.82-6.93-3.48-7.85-7.75
				c-0.53-2.43-0.8-4.91-0.59-7.4c1.11-12.97,0.34-25.96,0.41-38.94c0.13-21.3,0.04-42.6,0.04-63.9c0-1.02,0-2.04,0-3.06
				c0-0.59-0.06-1.48-0.57-1.5c-4.27-0.14-2.73-3.34-2.73-5.4c-0.06-28.74,0.52-57.48-0.11-86.22c-0.13-6.12-0.84-12.24-0.02-18.35
				c0.21-1.58,0.48-3.18,0.95-4.7c1.76-5.69,5.51-8.57,11.52-9.06c4.27-0.35,8.44,0.35,12.62,1.02c7.52,1.21,15.08,1.56,22.68,0.99
				c3.05-0.23,6.11-0.45,9.16,0.2c4.43,0.94,7.18,3.48,8.28,7.97c0.68,2.76,0.71,5.51,0.56,8.26c-0.76,13.4-0.97,26.82-1.18,40.24
				c-0.15,9.48-0.26,18.96-0.41,28.44c-0.03,1.62,0.22,3.19,0.62,4.75c0.71,2.8,2.46,4.6,5.21,5.37c4.22,1.19,8.39,0.82,12.47-0.65
				c2.63-0.95,4.34-2.83,5.3-5.46c0.61-1.67,0.92-3.39,0.87-5.14c-0.56-18.95,0.7-37.94-0.96-56.87c-0.4-4.5-0.98-8.96-0.14-13.51
				c1.37-7.36,5.45-11.35,12.88-12.03c3.49-0.32,7.02-0.28,10.49,0.18c8.01,1.06,16.02,0.85,24.03,0.11c3.2-0.3,6.42-0.57,9.62-0.25
				c4.89,0.48,8.64,2.57,9.85,7.78C1359.97,494.02,1359.98,494.59,1359.99,495.16z"/>
			<path class="st15" d="M389.78,735.14c-3.21-0.28-6.41-0.28-9.62,0c-8.67-1.09-17.39-1.93-25.84-4.32
				c-3.92-1.11-7.82-2.31-11.74-3.44c-8.39-2.4-14.66-7.59-19.48-14.7c-5.51-8.11-8.5-17.22-10.29-26.73
				c-1.27-6.74-1.99-13.56-1.83-20.45c0.07-2.8,0.46-5.52,1.38-8.15c1.82-5.18,5.4-8.32,10.82-7.81c7.7,0.72,14.72-1.17,21.78-3.61
				c1.92-0.66,3.94-1.04,6-1.16c5.55-0.33,8.74,1.53,11.14,6.61c1.19,2.52,1.82,5.21,2.34,7.94c0.71,3.74,1.77,7.38,3.7,10.69
				c2.97,5.07,7.32,7.74,13.31,7.63c3.7-0.07,7.26-0.74,10.63-2.24c4.23-1.89,6.7-5.11,6.8-9.83c0.05-2.32,0-4.7-0.42-6.97
				c-0.95-5.07-0.96-10.12-0.59-15.24c0.52-7.3-2.02-10.3-9.32-11.76c-5.61-1.12-11.35-0.54-17-1.4
				c-18.17-2.77-34.33-9.79-48.41-21.71c-9.63-8.16-13.25-18.75-13.84-30.91c-1.09-22.44,2.71-43.84,12.97-63.94
				c4.42-8.65,10.06-16.36,17.44-22.8c7.94-6.93,17.11-10.12,27.5-8.49c11.45,1.8,23,1.32,34.48,2.37
				c9.01,0.82,17.99,1.74,26.72,4.33c11.52,3.41,19.1,10.72,22.77,22.17c2.15,6.7,3.42,13.57,4.24,20.51
				c0.48,4.1,1.38,8.01,2.95,11.82c0.83,2.01,1.54,4.1,1.99,6.23c0.79,3.73-0.55,5.82-4.18,6.97c-0.56,0.18-1.13,0.45-1.69,0.44
				c-6.87-0.05-13.08,2.67-19.47,4.62c-2.79,0.85-5.6,1.59-8.54,1.77c-6.02,0.37-10.48-2.13-13.41-7.29
				c-1.22-2.14-2.12-4.47-3.07-6.75c-4.37-10.52-11.45-15.17-22.8-14.79c-4.09,0.14-8.14,0.68-12.14,1.59
				c-5.66,1.28-8.46,4.52-8.87,10.37c-0.17,2.47-0.03,4.96,0.01,7.44c0.06,3.93,0.32,7.87-0.73,11.75c-0.3,1.1-0.22,2.32-0.22,3.48
				c0.02,6.79,3.62,10.44,10.46,10.85c3.41,0.21,6.68-0.56,9.99-1.04c20.57-2.99,38.05,3.26,52.57,17.84
				c8.94,8.98,16.1,19.28,20.2,31.37c4.24,12.48,3.89,25.25,1.45,38.04c-2.91,15.25-8.72,29.27-17.9,41.85
				c-11.55,15.84-27.45,23.89-46.63,26.1C393.52,734.59,391.65,734.88,389.78,735.14z"/>
			<path class="st15" d="M1037.54,557.03c0.91-7.43,0.44-15.62,1.45-23.76c1.97-15.74,9.6-27.58,23.49-35.31
				c10.67-5.94,22.2-9.54,34.07-12.06c13.33-2.83,26.79-4.15,40.45-3.02c20.09,1.67,33.62,11.91,40.8,30.65
				c3.42,8.93,4.55,18.35,5.87,27.73c0.47,3.32,0.91,6.65,1.32,9.97c0.6,4.89-1.53,7.56-6.4,7.86c-1.59,0.1-3.28,0.17-4.79-0.25
				c-4.01-1.11-7.8-0.39-11.61,0.8c-2.92,0.91-5.81,1.95-8.77,2.68c-7.91,1.96-12.56-0.45-15.66-7.97
				c-0.55-1.34-0.95-2.75-1.46-4.12c-3.77-10.18-10.64-15.18-21.5-15.47c-4.54-0.12-9.04,0.47-13.45,1.51
				c-5.32,1.25-8.01,4.26-8.69,9.63c-0.22,1.73-0.22,3.5-0.21,5.24c0.03,4.96,0.06,9.9-1.36,14.75c-0.48,1.63-0.37,3.48-0.26,5.22
				c0.24,4.06,2.41,6.79,6.24,8.12c3.4,1.18,6.86,1.05,10.37,0.41c12.95-2.33,25.57-1.43,37.71,3.96
				c9.81,4.36,17.89,10.98,24.5,19.33c9.37,11.84,16.39,24.74,17.94,40.14c1.14,11.39-0.43,22.41-3.87,33.21
				c-5.83,18.32-15.84,33.97-30.2,46.85c-6.55,5.88-14.2,8.92-22.81,8.3c-10.8-0.78-21.59-0.27-32.37-0.74
				c-8.17-0.35-16.22-1.69-24.1-4.02c-17.41-5.15-28.37-16.53-33.41-33.85c-2.54-8.74-3.55-17.71-4.17-26.74
				c-0.18-2.64,0.25-5.26,0.85-7.81c1.45-6.17,5.96-9.68,12.22-8.64c5.33,0.88,10.1-0.24,14.94-1.99c3.42-1.24,6.83-2.54,10.45-3.15
				c5.29-0.89,9.05,0.91,11.66,5.65c1.2,2.18,1.92,4.54,2.51,6.97c1.01,4.11,2.21,8.16,4.34,11.86
				c5.84,10.16,20.23,12.17,28.71,4.03c2.24-2.15,3.15-4.86,3.39-7.84c0.16-1.9-0.07-3.78-0.39-5.66
				c-0.97-5.61-1.81-11.24-1.14-16.97c0.07-0.58,0.02-1.17,0-1.75c-0.24-6.1-3.32-9.38-9.5-9.77c-3.2-0.2-6.42-0.04-9.63,0.01
				c-10.44,0.18-20.68-1.1-30.6-4.42c-21.06-7.05-32.62-22.01-36.22-43.58C1036.86,574.64,1037.16,566.19,1037.54,557.03z"/>
			<path class="st15" d="M-2.89,694c1.25-20.69,0.88-41.4,0.46-62.11c-0.17-8.15-0.03-16.31-0.03-24.46
				c3.76-0.84,3.78-0.84,3.78-4.66c0.04-27.86,0.47-55.73-0.01-83.59C1.22,513.79,0.97,508.4,0.86,503
				c-0.03-1.74,0.05-3.51,0.31-5.23c1.33-8.93,5.49-12.72,14.61-13c4.95-0.15,9.93,0.02,14.88,0.23
				c19.71,0.82,39.39,0.46,59.06-0.96c4.22-0.31,8.45-0.55,12.69-0.19c9.31,0.78,13.95,6.04,13.43,15.34
				c-0.14,2.47-0.32,4.94-0.96,7.36c-1.36,5.15-1.04,10.42-0.96,15.67c0.05,3.34,0.14,6.69-0.85,9.97c-1.31,4.37-4.22,6.87-8.6,7.72
				c-5.72,1.12-11.33,0.35-16.85-1.27c-2.93-0.86-5.78-2.04-8.74-2.79c-7.84-1.99-12.3,0.65-14.36,8.54
				c-1.64,6.29-1.89,12.71-0.59,19.08c1.38,6.79,5.41,11.06,12.41,12.46c5.09,1.02,10.17,0.87,15.25,0.31
				c3.39-0.37,6.73-0.26,10,0.5c4.34,1.01,7.19,3.58,8.08,8.16c0.54,2.77,0.46,5.5,0.14,8.26c-0.67,5.93-1.59,11.82-0.52,17.84
				c0.64,3.57,0.66,7.25,0.14,10.9c-0.92,6.44-4.51,9.82-11.02,10.27c-4.73,0.33-9.25-1.1-13.88-1.59
				c-2.34-0.24-4.65-0.42-6.98-0.14c-8.84,1.08-13.51,5.82-14.67,14.66c-0.7,5.4-0.38,10.79,0.19,16.15
				c0.6,5.68,0.77,11.36,0.62,17.04c-0.31,11.66,0.56,23.34-0.67,34.99c-0.14,1.3-0.34,2.6-0.58,3.88
				c-1.09,5.84-4.61,9.12-10.41,10.33c-3.46,0.72-6.94,1.01-10.42,1.21c-8.31,0.46-16.63,0.51-24.95,0.38
				c-2.51-0.04-4.95-0.51-7.34-1.11c-7.18-1.8-11.03-6.65-12.25-13.8C-3.4,707.46-3.45,700.73-2.89,694z"/>
			<path class="st15" d="M508.53,632.94c0-21.15-0.03-42.3,0.02-63.45c0.01-4.37,0.21-8.75,0.45-13.11
				c0.44-8.12-4.49-11.69-11.7-12.16c-2.33-0.15-4.67-0.02-6.97,0.48c-2.59,0.57-5.22,0.65-7.84,0.54c-3.88-0.16-5.89-1.7-6.95-5.44
				c-1-3.52-1.36-7.15-1.6-10.79c-0.8-12.42,0.06-24.79,1.12-37.14c0.44-5.15,2.17-6.84,7.33-7.62c1.72-0.26,3.49-0.26,5.24-0.26
				c16.35-0.02,32.7,0.01,49.05-0.05c1.7-0.01,3.82,0.94,4.88-1.62c0.3-0.72,1.62-0.41,2.48-0.39c12.26,0.37,24.52-0.45,36.78,0.16
				c4.82,0.24,9.56,0.97,14.16,2.51c7.73,2.58,11.84,8.03,13.1,15.93c0.86,5.39,0.57,10.74,0.07,16.14
				c-0.57,6.25-1.52,12.44-2.56,18.62c-0.81,4.76-2.46,5.89-7.27,5.27c-3.95-0.5-7.85-0.6-11.76,0.2
				c-6.27,1.28-10.02,5.11-10.96,11.46c-0.34,2.3-0.61,4.67-0.45,6.97c1.22,17.35,0.49,34.71,0.46,52.07
				c-0.06,30.34-0.1,60.68,0.94,91.02c0.12,3.35,0.09,6.72-0.19,10.06c-0.84,9.98-5.97,15.25-15.86,16.78
				c-5.37,0.83-10.77,0.79-16.16,0.79c-7,0-14.01,0.36-20.98-0.74c-7.75-1.22-11.22-4.47-12.71-12.25
				c-1.36-7.06-1.3-14.23-1.35-21.36c-0.14-20.86-0.05-41.73-0.05-62.59C509,632.94,508.76,632.94,508.53,632.94z"/>
			<path class="st15" d="M701.77,32.67c1.75,0.24,3.51,0.26,5.26,0.01c2.33,0.18,4.67,0.33,7,0.04c16.32,0.83,32.64,1.84,48.87,3.74
				c24.06,2.81,47.87,6.97,71.43,12.69C883.18,61,929.47,79.3,973.36,103.75c1.47,0.82,3.16,1.38,4.68,3.18
				c-6.08,0-11.67,0.08-17.26-0.01c-38.08-0.64-76.14-2.33-114.24-2.25c-26.58,0.06-53.1,1.07-79.52,4.2
				c-31.78,3.76-60.34-4.51-86.21-22.97c-11.67-8.32-22.46-17.68-33.14-27.19c-7.96-7.08-15.92-14.16-23.88-21.24
				c-0.52-0.46-1.03-0.94-2.08-1.92c14.25-1.61,27.88-2.01,41.47-2.83c2.34,0.29,4.67,0.14,7-0.03c1.75,0,3.51,0,5.26,0
				c3.2,0.21,6.41,0.25,9.61-0.04c2.66,0.28,5.32,0.25,7.98,0.02C695.95,32.9,698.86,32.91,701.77,32.67z"/>
			<path class="st15" d="M1111.59,378.01c-23.82-0.08-45.11-1.07-66.4-2.07c-23.92-1.12-47.81-2.63-71.72-3.97
				c-16.47-0.93-32.94-1.88-49.41-2.78c-3.52-0.19-6.96-0.8-10.3-1.88c-7.49-2.43-11.5-7.7-12.09-15.48
				c-0.23-3.05-0.17-6.13-0.02-9.18c0.25-5.25,0.49-10.48,0-15.74c-0.18-1.87-0.1-3.82,0.22-5.67c1.01-5.73,4.4-8.28,10.2-7.81
				c3.2,0.26,6.35,0.94,9.44,1.82c3.54,1.01,7.11,1.48,10.8,1.36c10.94-0.34,21.89-0.73,32.83-0.85c8.78-0.1,17.48,0.82,25.96,3.32
				c9.43,2.78,17.83,7.41,24.49,14.63c4.12,4.47,9.07,6.14,14.77,6.42c13.71,0.66,27.42,1.17,41.13,1.85
				c19.98,0.99,39.94,2.18,59.92,3.07c30.93,1.38,61.86,2.06,92.82,0.68c21.46-0.96,42.8-2.93,64-6.36
				c14.69-2.38,29.23-5.44,43.58-9.37c2.1-0.57,4.19-1.21,6.41-1.34c3.29-0.2,5.58,1.18,7.23,3.94c4.19,7.04,3.03,15.51-2.9,21.18
				c-2.57,2.46-5.68,4.08-8.82,5.61c-9.67,4.7-19.96,7.33-30.55,8.79c-17.8,2.45-35.75,3.26-53.67,4.39
				c-23.6,1.49-47.22,2.72-70.83,4.11C1155.51,378.06,1132.32,379.18,1111.59,378.01z"/>
			<path class="st15" d="M661.08,121.17c-1.38,0.98-2.58,0.73-3.71,0.78c-28.42,1.29-56.85,2.51-85.27,3.84
				c-20.7,0.97-41.39,2.07-62.08,3.11c-4.96,0.25-9.92,0.55-14.87,0.22c-7.72-0.51-13.96-3.83-17.09-11.03
				c-6.65-15.29-17.29-27.58-28.61-39.42c-1.61-1.68-3.2-3.38-4.74-5c0.32-1.6,1.67-1.76,2.63-2.26
				c21.14-11.05,43.17-19.67,66.7-24.13c23.71-4.49,47.31-4.6,70.56,2.5c29.99,9.16,52.38,27.96,68.2,54.81
				C655.91,109.87,658.73,115.29,661.08,121.17z"/>
			<path class="st15" d="M1238.17,154.48c29.61,7.82,51.66,26.15,69.49,50.2c4.53,6.11,8.07,12.83,9.48,20.47
				c0.11,0.57,0.32,1.13,0.38,1.71c0.18,1.68-0.05,3.51-1.64,4.17c-1.65,0.68-2.52-1.04-3.22-2.23c-1.85-3.14-3.47-6.41-5.35-9.53
				c-0.85-1.41-1.48-3.68-3.6-3.23c-1.78,0.37-1.62,2.53-2,4.03c-0.89,3.56-0.75,7.24-1.16,10.86c-0.58,5.14-2.55,7.27-7.78,7.56
				c-3.2,0.18-6.42-0.05-9.63-0.19c-17.94-0.76-35.87-1.55-53.81-2.32c-14.58-0.63-29.17-1.24-43.75-1.85
				c-4.9-0.2-8.93-2.35-12.63-5.39c-3.13-2.58-5.75-5.8-9.49-7.63c-2.47-1.29-3.77-3.58-4.95-5.93
				c-5.06-10.02-10.75-19.66-16.95-29.02c-0.16-0.24-0.31-0.49-0.46-0.74c-6.85-11.42-3.64-20.15,9-24.5
				c2.07-0.71,4.18-1.26,6.29-1.87c9.69-1.13,19.44-1.56,29.16-2.12c15.97-0.92,31.91-2.53,47.92-2.93
				C1235.06,153.95,1236.67,153.66,1238.17,154.48z"/>
			<path class="st15" d="M1238.17,154.48c-2.09,0.64-4.2,0.96-6.42,0.98c-8.11,0.08-16.2,0.57-24.25,1.67
				c-0.57,0.08-1.17,0.08-1.75,0.04c-6.84-0.45-13.66,0.55-20.4,1.16c-5.75,0.52-11.6-0.17-17.31,1.33
				c-2.32,0.61-4.93,0.16-7.4,0.13c-1.76-0.03-3.49,0.07-5.12,0.81c-7.75-7.36-15.31-7.91-25.65-0.58
				c-5.02,3.56-5.72,6.67-2.7,11.99c3.02,5.32,6.45,10.37,8.86,16.07c2.02,4.78,1.13,8.82-1.63,12.74
				c-0.98,1.39-2.12,3.12-4.17,1.19c-1.75-2.46-3.46-4.95-5.25-7.38c-4.56-6.18-10.28-10.46-18.22-11.11
				c-2.05,1.29-3.5,0.13-4.91-1.2c-0.6-0.65-1.1-1.4-1.27-2.26c-1.77-8.85-8.11-13.36-15.66-16.93c-5.1-2.41-10.8-3.68-15.16-7.57
				c-16.42-5.16-33.15-9.05-50.02-12.42c-27.62-5.51-55.5-9.29-83.47-12.42c-20.87-2.33-41.75-4.64-62.62-7.03
				c-2.98-0.34-6.03-0.59-8.82-1.93c0.36-1.07,1.27-1.14,2.11-1.38c13.62-3.93,27.5-6.49,41.6-7.97c27.13-2.85,54.2-1.83,81.28,0.72
				c18.3,1.72,36.64,3.08,54.95,4.69c38.65,3.42,77.25,7.29,115.49,14.1c15.06,2.68,30.04,5.82,44.85,9.67
				c5.81,1.51,11.77,2.06,17.6,3.32C1228.96,146.3,1234.73,148.52,1238.17,154.48z"/>
			<path class="st15" d="M354.58,132.59c9.31-15.82,22.46-27.8,37.79-37.58c8.86-5.65,18.2-10.42,27.75-14.75
				c8.28-3.76,14.04-2.64,19.98,4.18c5.45,6.27,10.67,12.76,15.71,19.36c4.9,6.42,8.39,13.62,10.6,21.42
				c0.32,1.12,0.71,2.22,0.52,3.85c-4.23,0.25-8.52,0.68-12.83,0.74c-13.72,0.19-27.43,0.27-41.15,0.33
				c-18.83,0.08-37.62,0.87-56.29,3.54C355.63,133.97,354.6,134.25,354.58,132.59z"/>
			<path class="st15" d="M807.7,405.72c3.75-3.22,7.64-6.29,11.23-9.69c14.88-14.09,23.71-31.55,28.25-51.35
				c3.34-14.58,4.38-29.39,4.7-44.3c0.27-12.41,0.22-24.78-1.85-37.08c-3.02-17.85-10.45-33.27-24.32-45.27
				c-0.2-0.17-0.3-0.47-0.74-1.2c2.98-0.07,5.58,0.58,8.11,1.22c8.53,2.17,15.3,7,20.63,13.94c6.53,8.5,10.12,18.31,12.73,28.54
				c3.3,12.92,4.43,26.14,5.38,39.38c0.82,6.96-0.26,13.98,0.44,20.89c1.38,13.57-2.59,25.87-8.09,37.9
				c-6.39,13.95-13.7,27.36-23.8,39.06c-1.24,1.44-2.46,2.88-3.97,4.05c-4.53,3.56-9.29,6.22-15.46,5.46
				c-3.57-0.44-7.24-0.03-10.87-0.11C809.12,407.14,807.5,407.81,807.7,405.72z"/>
			<path class="st15" d="M1106.46,388.35c48.76,0,96.67,0,145.46,0c-2.4,2.89-4.2,5.31-6.25,7.49
				c-12.64,13.5-28.27,21.38-46.46,24.09c-27.58,4.1-52.61-2.93-75.68-17.97C1117.65,398.14,1112.19,393.78,1106.46,388.35z"/>
			<path class="st15" d="M1101.9,181.56c1.57,0.77,2.87,2.23,4.86,1.98c-0.81,1.58,0.29,2.85,0.82,4.12
				c6.65,16.14-9.53,35.9-27.25,33.19c-21.17-3.24-35.75-15.18-44.86-34.18c-3.07-6.42-2.88-12.96,0.27-19.36
				c2.48-5.02,6.43-7.62,12.18-7.65c3.83-0.02,7.49,1.09,11.29,1.12c7.71-0.91,12.7,3.94,17.62,8.58
				c6.68,6.3,13.61,11.84,23.49,11.49C1100.9,180.83,1101.4,181.27,1101.9,181.56z"/>
			<path class="st15" d="M362.51,251.86c12.79,17.94,30.62,26.7,52.19,28.94c9.03,0.94,18.07,0.97,27.1,1.25
				c27.58,0.85,55.1,2.67,82.63,4.5c5.39,0.36,10.79,0.6,16.17,1c3.81,0.28,7.56-0.27,11.34-0.54c12.13-0.86,24.2-0.15,36.19,1.96
				c9.63,1.69,19.09,4.08,28.49,6.72c0.6,0.95-0.26,1.12-0.78,1.48c-31.35,0.05-62.69,1.4-94.05,0.81
				c-22.01-0.42-44.04-0.98-65.94-3.4c-12.08-1.34-24.17-0.71-36.24-1.27c-10.04-0.46-20.1,0.09-30.14-1.11
				c-10.93-1.3-18.35-6.76-22.15-17.11c-2.57-6.99-4.43-14.15-5.72-21.48C361.39,252.76,360.84,251.74,362.51,251.86z"/>
			<path class="st15" d="M1026.88,192.67c0.19,9.14-2.78,13.8-9.89,16.7c-5.83,2.37-12.05,3.4-18.17,4.58
				c-3.57,0.69-7.24-0.71-10.7-1.78c-10.92-3.4-20.42-9.18-28.32-17.48c-2.83-2.97-5.03-6.36-6.91-10.03
				c-4.25-8.3,0.58-23.84,14.19-25.38c2.23-0.25,4.43-0.14,6.5,0.51c9.2,2.91,18.78,4,28.14,6.15c3.41,0.78,6.72,1.84,9.93,3.28
				C1022.41,174.04,1026.53,182.91,1026.88,192.67z"/>
			<path class="st15" d="M253.11,344.65c6.77-1.78,13.56-3.47,20.56-3.99c6.51-0.47,12.5,1.05,17.45,5.49
				c1.57,1.41,3.13,1.65,5.15,1.52c10.04-0.64,20.05-1.87,30.15-0.67c6.43,0.76,12.62,2.21,18.5,4.89c1.61,0.73,3.21,1.25,5,1.39
				c29.96,2.39,59.93,4.8,89.89,7.24c22.98,1.87,45.95,3.91,68.94,5.62c16.3,1.22,32.63,1.98,48.94,3.01
				c17.91,1.13,35.82,2.35,53.73,3.53c0.31,0.12,0.42,0.27,0.34,0.43c-0.08,0.18-0.17,0.26-0.26,0.26
				c-32.89,2.07-65.76,4.71-98.74,4.84c-23.66,0.09-47.18-1.67-70.52-5.8c-13.19-2.34-26.51-3.97-39.78-5.89
				c-17.16-2.48-34.32-4.99-51.5-7.35c-12.71-1.75-25.42-3.43-38.17-4.86c-15.22-1.71-30.31-4.18-45.41-6.63
				c-4.75-0.77-9.48-1.59-14.22-2.39c-0.33-0.12-0.44-0.26-0.35-0.41C252.9,344.73,253,344.65,253.11,344.65z"/>
			<path class="st15" d="M807.7,405.72c0.76,1.16,1.96,1.03,3.11,1.03c2.88,0.01,5.79-0.22,8.65,0.05
				c6.54,0.63,11.61-2.45,16.5-6.12c9.29-2.01,16.29-7.36,21.66-15c4.03-5.74,7.23-11.96,10.24-18.27c1.76-3.7,3.96-7.13,6.35-10.44
				c0.83-1.15,1.62-2.62,3.42-2.16c1.59,0.41,2.29,1.78,2.67,3.2c0.8,2.95,1.52,5.95,1.31,9.04c-0.24,3.61,0.54,6.94,2.34,10.04
				c2.47,4.42,6.39,6.11,11.29,6.01c2.33-0.05,4.66-0.04,6.99,0.01c2.05,0.04,4.02,0.39,5.71,1.94c-1.04,2.23-2.5,4.04-4,5.79
				c-19.12,22.24-43.07,31.32-72.17,26.56c-3.3-0.54-5.12-1.92-6-5.22c-1.4-5.29-0.29-4.68-6.41-4.72
				c-3.94-0.03-7.87-0.01-11.81-0.01c-0.57,0-1.25,0.05-1.17-0.78C806.46,405.98,807.15,405.89,807.7,405.72z"/>
			<path class="st16" d="M883.95,377.1c-2.84-1.73-3.36-4.56-3.52-7.54c-0.15-2.91,0-5.82-0.55-8.72c-0.38-2.05-0.98-3.95-2.39-5.58
				c-1.77,0.47-2.31,2.12-3.19,3.38c-3.1,4.43-5.48,9.28-7.92,14.09c-2.64,5.2-5.31,10.39-8.79,15.09
				c-4.94,6.67-11.25,11.35-19.41,13.33c-0.78,0.19-1.69,0.69-2.22-0.47c6.29-6.15,11.23-13.35,15.84-20.77
				c8.28-13.31,14.24-27.68,19.11-42.53c0.55-1.68,0.81-3.37,0.81-5.14c-0.03-9.18-0.01-18.36,0-27.54c0-1.6,0.07-3.19,0.11-4.79
				c1.14,1.22,0.76,2.75,0.77,4.16c0.05,8.73,0.03,17.45,0.05,26.18c0,1.41-0.23,2.85,0.29,4.26c1.77,0.21,2.42-1.11,3.34-1.93
				c0.98-0.87,1.81-1.91,2.82-2.73c2.15-1.75,3.87-1.36,4.62,1.23c0.6,2.07,1.21,4.16,1.2,6.39c-0.06,10.18,0.02,20.36-0.11,30.54
				C884.77,371.05,884.25,374.07,883.95,377.1z"/>
			<path class="st15" d="M282.86,154.52c-18.01,17.21-38.84,30.14-61.47,40.3c-12.22,5.49-24.68,10.35-37.56,14.07
				c-0.48,0.48-1.2,0.31-1.73,0.66c-0.28,0.08-0.56,0.15-0.85,0.23c-0.33,0.27-0.68,0.29-1.05,0.1c-0.22-0.37-0.18-0.71,0.11-1.02
				l0.05-0.02c0.25-0.27,0.55-0.47,0.9-0.58c33.47-17.99,66.93-35.99,100.4-53.97c0.38-0.2,0.79-0.35,1.18-0.52
				c0.28,0.16,0.38,0.33,0.29,0.5C283.05,154.43,282.96,154.52,282.86,154.52z"/>
			<path class="st15" d="M395.12,314.85c9-2.57,18.26-3.6,27.54-4.35c19.82-1.6,39.58-0.42,59.32,1.44
				c9.56,0.9,19.15,1.52,28.66,2.92c0.32,0.65,0.12,1.05-0.58,1.21c-38.13,0.07-76.25,0.08-114.38,0
				C394.98,315.9,394.79,315.5,395.12,314.85z"/>
			<path class="st15" d="M356.72,95.9c-5.85,7.43-11.77,14.8-18.31,21.64c-6.91,7.23-14.73,13.18-24.39,16.34
				c-0.68,0.22-1.33,0.62-2.4,0.13c1.63-1.71,3.18-3.36,4.74-5c6.02-6.32,11.71-12.96,18.07-18.95c6.05-5.7,12.43-10.96,20.19-14.25
				C355.33,95.35,356.04,95.35,356.72,95.9z"/>
			<path class="st15" d="M395.03,71.34c10.86-14.5,25.84-20.37,43.8-21.1c-0.79,1.57-2.01,1.73-2.98,2.21
				c-12.53,6.19-25.06,12.37-37.6,18.53c-1.03,0.51-2.13,0.89-3.2,1.33c-0.24-0.21-0.33-0.42-0.25-0.64
				C394.87,71.45,394.95,71.34,395.03,71.34z"/>
			<path class="st17" d="M394.95,315.6c1.16,0.05,2.33,0.14,3.49,0.14c36.14,0.01,72.28,0.01,108.42,0c1.31,0,2.62-0.11,3.92-0.16
				c0.97-0.55,2.03-0.22,3.04-0.31c0.61,0,1.21,0,1.82,0c0.98-0.06,1.98,0.16,2.94-0.23c1.93-0.33,3.52,0.73,5.24,1.31
				c-44.41,0-88.82,0-133.45,0c0.67-0.89,1.28-1.25,2.03-1.37c0.4,0.23,0.84,0.3,1.3,0.29C394.14,315.28,394.61,315.21,394.95,315.6
				z"/>
			<path class="st18" d="M-2.89,694c0.41,2.58,0.08,5.16-0.17,7.73c-0.4,4.17,0.16,8.31,0.14,12.47c-0.85-0.58-0.8-1.52-0.94-2.38
				c0.01-3.97,0.01-7.95,0.02-11.92C-3.41,697.95-4.19,695.81-2.89,694z"/>
			<path class="st19" d="M615.85,297.16c0.26-0.49,0.52-0.99,0.78-1.48c1.26-0.21,2.11,0.47,3.21,1.23
				C618.33,297.57,617.1,297.49,615.85,297.16z"/>
			<path class="st20" d="M180.5,209.56c0.29-0.05,0.54,0.02,0.75,0.21c-0.67,0.78-1.6,0.94-2.55,1.02c-0.89,0.2-1.16-0.18-0.96-1.01
				c0.59-0.26,1.18-0.52,1.77-0.77C179.84,209.21,180.17,209.39,180.5,209.56z"/>
			<path class="st21" d="M362.51,251.86c-0.77,0.34-0.52,1.21-0.89,1.75c-0.25-0.5-0.62-0.98-0.71-1.5c-0.1-0.6-0.55-1.58,0.39-1.73
				C362.03,250.26,362.35,251.14,362.51,251.86z"/>
			<path class="st22" d="M177.75,209.78c0.08,0.57,0.5,0.8,0.96,1.01c-0.91,0.8-1.88,1.01-3.04,0.49
				C176.14,210.28,177,210.12,177.75,209.78z"/>
			<path class="st15" d="M514.21,315.59c-1.14-0.01-2.28-0.01-3.42-0.02c-0.06-0.24-0.1-0.47-0.13-0.72
				c1.18,0.03,2.35,0.07,3.53,0.1c0.31,0.13,0.42,0.26,0.33,0.41C514.41,315.52,514.31,315.59,514.21,315.59z"/>
			<path class="st23" d="M354.58,132.59c0.39,0.95,1.39,0.73,2.09,1.09c-0.76,0.71-1.75,1.07-2.57,0.46
				C353.43,133.63,353.91,132.96,354.58,132.59z"/>
			<path class="st24" d="M518.58,315.04c-0.73,0.75-1.66,0.65-2.58,0.6c-0.28-0.13-0.39-0.27-0.32-0.44
				c0.08-0.17,0.16-0.26,0.24-0.26C516.81,314.97,517.7,315,518.58,315.04z"/>
			<path class="st25" d="M282.86,154.52c-0.15-0.25-0.15-0.5-0.01-0.76c0.17-0.63,0.92-1.12,1.15-0.73
				C284.6,154.04,283.65,154.31,282.86,154.52z"/>
			<path class="st15" d="M611.51,373.37c-0.04-0.23-0.07-0.46-0.08-0.7c0.9-0.27,1.78-0.13,2.66,0.07c0.3,0.14,0.41,0.27,0.31,0.41
				c-0.1,0.14-0.2,0.21-0.3,0.21C613.23,373.36,612.37,373.37,611.51,373.37z"/>
			<path class="st15" d="M356.72,95.9c-0.7-0.03-1.4-0.06-2.1-0.08c0.37-0.67,1.02-0.84,1.7-0.96c0.45-0.27,0.88-0.24,1.27,0.12
				C357.47,95.45,357.28,95.85,356.72,95.9z"/>
			<path class="st26" d="M515.93,314.94c0.04,0.23,0.06,0.47,0.07,0.7c-0.6-0.01-1.19-0.03-1.79-0.04c0-0.21-0.01-0.42-0.03-0.63
				C514.76,314.95,515.34,314.94,515.93,314.94z"/>
			<path class="st15" d="M253.11,344.65c0.12,0.21,0.14,0.43,0.04,0.65c-0.57,0.2-1.1,0.12-1.56-0.28
				C252.02,344.59,252.52,344.44,253.11,344.65z"/>
			<path class="st15" d="M394.95,315.6c-0.56-0.02-1.11-0.03-1.67-0.05c-0.19-0.17-0.24-0.31-0.15-0.44
				c0.08-0.11,0.17-0.16,0.25-0.16c0.58-0.03,1.16-0.07,1.74-0.1C395.07,315.1,395.01,315.36,394.95,315.6z"/>
			<path class="st27" d="M357.59,94.97c-0.42-0.04-0.85-0.08-1.27-0.12c0.45-0.58,0.98-1.01,1.67-0.4
				C358.2,94.65,357.97,94.94,357.59,94.97z"/>
			<path class="st28" d="M395.03,71.34c0.01,0.32,0.01,0.65,0.02,0.97c-0.09,0.51-0.44,0.82-0.74,0.3
				C393.98,72.03,394.4,71.55,395.03,71.34z"/>
			<path class="st15" d="M182.1,209.54c0.37-0.76,0.98-0.9,1.73-0.66C183.37,209.41,182.84,209.74,182.1,209.54z"/>
			<path class="st29" d="M617.56,372.74c0.45,0.01,1.06-0.36,1.12,0.46c0,0.03-0.73,0.12-1.12,0.18c-0.25-0.14-0.33-0.29-0.25-0.43
				C617.4,372.81,617.48,372.74,617.56,372.74z"/>
			<path class="st30" d="M617.56,372.74c0.04,0.22,0.04,0.43,0,0.65c-0.58,0-1.16,0-1.73,0.01c-0.26-0.14-0.34-0.29-0.26-0.44
				c0.08-0.15,0.17-0.22,0.26-0.22C616.41,372.73,616.98,372.73,617.56,372.74z"/>
			<path class="st31" d="M615.83,372.73c0.05,0.22,0.05,0.44,0,0.66c-0.58-0.01-1.16-0.02-1.73-0.03c0.02-0.21,0.02-0.41,0-0.62
				C614.67,372.74,615.25,372.74,615.83,372.73z"/>
			<path class="st24" d="M393.38,314.95c-0.01,0.2-0.04,0.4-0.1,0.6c-0.44,0.03-0.71-0.21-0.88-0.58
				C392.72,314.97,393.05,314.96,393.38,314.95z"/>
			<path class="st15" d="M181.27,208.25c-0.08,0.54-0.4,0.71-0.9,0.58C180.53,208.42,180.78,208.14,181.27,208.25z"/>
			<path class="st15" d="M180.5,209.56c-0.5,0.11-0.8-0.11-0.98-0.55c0.23-0.23,0.5-0.28,0.8-0.16
				C180.35,209.09,180.42,209.33,180.5,209.56z"/>
			<path class="st15" d="M1014.61,712.45c-0.92-24.2-1.89-48.39-2.84-72.59c-0.85-23.77-1.1-47.54-1.13-71.32
				c-0.02-10.3-1.83-20.29-5.58-29.91c-5.01-12.84-11.87-24.67-19.77-35.91c-3.46-4.92-7.75-9.12-12.63-12.66
				c-10.97-7.94-23.29-11.14-36.73-10.05c-16.51,1.34-31.35,6.69-43.13,18.78c-12.71,13.05-19.42,28.92-21.05,46.93
				c-0.95,10.46-1.41,20.96-2.06,31.44c-1.4,22.55-3.37,45.06-3.23,67.7c0.1,16.93-0.38,33.84-3.6,50.55
				c-1.08,5.61-1.53,11.26-0.84,16.97c0.91,7.56,4.91,12.55,12.15,15.03c3.92,1.34,7.96,1.82,12.03,2.07
				c8.78,0.55,17.54,0.34,26.03-2.19c8.51-2.53,12.71-8.17,13-17.07c0.1-3.05,0.19-6.18-0.3-9.17c-1.13-6.85-0.5-13.7-0.37-20.53
				c0.11-5.81,3.12-8.9,8.9-10.32c1.41-0.35,2.86-0.59,4.31-0.68c10.1-0.6,13.81,2.69,14.51,12.87c0.77,11.21,2.05,22.36,3.57,33.49
				c0.46,3.35,1.32,6.59,2.92,9.57c2.39,4.46,6.14,6.94,11.25,7.13c2.77,0.1,5.54,0.11,8.28-0.51c1.99-0.45,4.02-0.73,6.02-1.13
				c5.64-1.11,11.19-1.25,16.9,0.1c7.37,1.74,11.31-1.12,12.91-8.55C1014.82,719.16,1014.73,715.8,1014.61,712.45z M956.68,611.92
				c-0.53,5.95-3.61,9.18-9.44,10.39c-4.37,0.9-8.72,0.75-13.03-0.17c-5.5-1.17-8.53-4.65-9.05-10.32
				c-0.17-1.88-0.12-3.78-0.09-5.68c0.07-3.79,0.21-7.58,0.29-11.37c0.12-5.73,0.07-11.39,0.96-17.16
				c1.16-7.59,0.56-15.42,0.16-23.14c-0.12-2.22,0.06-4.37,0.47-6.52c0.73-3.8,3.06-6.2,6.79-7.19c4.32-1.15,8.67-1.09,12.98,0.06
				c3.84,1.02,6.31,3.53,7.35,7.36c0.61,2.26,0.87,4.57,0.89,6.92c0.07,9.04,0.15,18.08,0.8,27.53c-0.06,7.17,0.64,14.73,0.99,22.3
				C956.84,607.26,956.88,609.61,956.68,611.92z"/>
			<path class="st15" d="M288.06,678.33c0-13.72,0-27.43,0-41.15c0-1.17,0.41-2.73-0.18-3.42c-2.07-2.43-1.35-5.23-1.45-7.88
				c-0.93-24.63-0.88-49.3-3.51-73.84c-0.84-7.85-2.09-15.59-5.02-22.98c-7.94-20.05-22.2-34.27-40.93-44.37
				c-15-8.09-30.12-8-45.27-0.43c-11.86,5.92-21.13,14.91-29.51,24.98c-11.14,13.38-16.74,28.89-17.62,46.14
				c-0.73,14.42-1.25,28.85-1.74,43.28c-1.15,33.54-3.04,67.02-6.65,100.39c-0.46,4.24-0.35,8.43,0.25,12.64
				c1.18,8.24,5.58,13.65,13.72,15.67c10.62,2.63,21.37,2.62,32.15,1.13c1.72-0.24,3.44-0.7,5.07-1.3
				c5.75-2.13,9.41-6.08,10.72-12.21c0.93-4.36,0.94-8.73,0.3-13.05c-1.09-7.28-0.35-14.57-0.43-21.85
				c-0.05-4.32,2.4-7.36,6.53-8.92c3.46-1.31,7.06-1.75,10.73-1.74c7.23,0.03,10.72,3.2,11.47,10.4c0.09,0.87,0.11,1.75,0.11,2.62
				c-0.05,6.86,0.3,13.71,0.95,20.54c0.62,6.53,1.35,13.07,3.83,19.23c2.73,6.78,7.72,10.35,15.17,10.36
				c3.97,0,7.83-0.73,11.72-1.38c5.76-0.97,11.51-1.97,17.34-0.34c1.1,0.31,2.32,0.33,3.48,0.31c4.34-0.07,6.77-1.94,7.98-6.07
				c0.79-2.69,0.89-5.45,0.88-8.23c-0.02-12.84-0.01-25.68-0.01-38.52C288.11,678.33,288.09,678.33,288.06,678.33z M225.73,621.04
				c-6.56,2.46-13.39,2.93-20.18,1.01c-5.76-1.63-8.74-6.39-8.14-12.34c0.12-1.16,0.15-2.39,0.57-3.44
				c3.88-9.65,2.44-19.47,1.17-29.32c-0.69-5.34-1.16-10.71-0.54-16.12c1.19-10.33,7.2-16.94,16.36-20.91
				c5.26-2.28,10.31,0.09,12.45,5.42c0.7,1.75,1.18,3.59,1.16,5.53c-0.13,10.8,0.94,21.53,1.71,32.28c0.14,2.62,0.11,5.16-0.59,7.77
				c-0.85,3.17,0.34,6.35,0.99,9.47c0.77,3.71,1.61,7.38,1.54,11.21C232.14,616.25,229.91,619.48,225.73,621.04z"/>
		</g>
	</g>
</g>
<g id="Camada_2">
</g>
</svg>
