<?xml version="1.0" encoding="utf-8"?>
<!-- Generator: Adobe Illustrator 26.0.1, SVG Export Plug-In . SVG Version: 6.00 Build 0)  -->
<svg version="1.1" id="Camada_1" xmlns="http://www.w3.org/2000/svg" xmlns:xlink="http://www.w3.org/1999/xlink" x="0px" y="0px"
	 viewBox="0 0 595.28 841.89" style="enable-background:new 0 0 595.28 841.89;" xml:space="preserve">
<style type="text/css">
	.st0{fill:#4173B8;}
</style>
<path class="st0" d="M333.71,451.32c-5.51,0-11.04,0.25-16.54-0.05c-9.72-0.53-16.84-6.48-17.98-16.09
	c-1.5-12.64-1.52-25.43,0.07-38.07c1.12-8.86,7.73-14.66,16.66-15.51c11.12-1.06,22.29-0.94,33.41-0.2
	c12,0.8,18.37,6.97,19.25,18.96c0.82,11.22,1.03,22.53-0.22,33.74c-1.14,10.23-8.2,16.68-18.45,17.19
	c-5.39,0.27-10.8,0.05-16.21,0.05C333.71,451.33,333.71,451.33,333.71,451.32z M305.29,416.12c0.01,0,0.02,0,0.02,0
	c0,5.52-0.24,11.04,0.06,16.54c0.38,6.87,4.72,11.34,11.52,11.92c11.02,0.94,22.07,0.92,33.08,0.04c7.2-0.57,11.52-4.64,12.01-11.84
	c0.75-10.9,0.7-21.85,0.03-32.75c-0.42-6.96-4.36-10.8-11.24-11.89c-2.54-0.4-5.16-0.52-7.74-0.5c-9.01,0.09-18.06-0.72-27.01,0.63
	c-6.58,0.99-10.36,5.29-10.69,11.97C305.08,405.53,305.29,410.83,305.29,416.12z"/>
<path class="st0" d="M333.22,434.5c-10.15-0.26-17.99-8.53-17.73-18.7c0.25-9.91,8.58-17.86,18.49-17.64
	c10.11,0.23,18.34,8.73,17.96,18.56C351.55,426.93,343.31,434.76,333.22,434.5z M345.27,416.42c0.03-6.35-5.22-11.71-11.53-11.75
	c-6.37-0.04-11.55,5.15-11.59,11.6c-0.04,6.49,4.99,11.61,11.46,11.66C340.01,427.99,345.24,422.82,345.27,416.42z"/>
<path class="st0" d="M352.19,401.91c-2.28-0.24-3.94-1.68-4.03-4.24c-0.09-2.6,1.51-4.17,4.11-4.42c2.48-0.23,4.55,1.85,4.52,4.35
	C356.76,399.96,354.84,401.88,352.19,401.91z"/>
</svg>
