<?xml version="1.0" encoding="utf-8"?>
<!-- Generator: Adobe Illustrator 26.0.1, SVG Export Plug-In . SVG Version: 6.00 Build 0)  -->
<svg version="1.1" id="Camada_1" xmlns="http://www.w3.org/2000/svg" xmlns:xlink="http://www.w3.org/1999/xlink" x="0px" y="0px"
	 viewBox="0 0 595.28 841.89" style="enable-background:new 0 0 595.28 841.89;" xml:space="preserve">
<style type="text/css">
	.st0{fill:#4173B8;}
</style>
<path class="st0" d="M325.59,404.7c1.96-5.84,3.65-11.04,5.47-16.19c0.51-1.46,0.56-2.65-0.15-4.12
	c-11.79-24.3,4.72-50.54,31.64-50.37c16.82,0.11,31.88,14.04,33.53,30.34c1.96,19.4-11.42,34.92-28.11,37.93
	c-7.32,1.32-14.36,0.43-21.08-2.71c-1.55-0.72-2.88-0.74-4.49-0.2C337.07,401.15,331.7,402.77,325.59,404.7z M334.31,395.35
	c0.37,0.08,0.75,0.15,1.12,0.23c1.61-0.5,3.28-0.85,4.82-1.52c3.27-1.41,6.2-1.73,9.49,0.43c2.7,1.77,6.06,2.25,9.37,2.52
	c12.93,1.05,24.62-6.14,29.47-18.22c4.55-11.33,1.08-24.66-8.42-32.38c-10.24-8.32-23.99-8.98-34.88-1.67
	c-10.37,6.96-15.48,20.27-11.19,32.04C336.37,383.1,339.28,388.83,334.31,395.35z"/>
<path class="st0" d="M370.92,384.8c-3.99-0.66-7.62-1.86-10.95-3.74c-6.37-3.58-10.91-8.97-14.15-15.42
	c-1.98-3.95-1.73-7.87,1.26-11.32c2.41-2.79,5.58-2.24,7.04,1.12c0.49,1.13,0.84,2.34,1.44,3.4c1.07,1.92,1.07,3.64-0.64,5.15
	c-1.49,1.32-1.23,2.57-0.15,4.05c2.43,3.34,5.43,5.93,9.11,7.82c1.85,0.95,3.23,0.84,4.23-0.99c1.56-2.88,3.62-2.9,6.08-1.26
	c0.28,0.18,0.66,0.22,0.91,0.43c1.49,1.22,4.41,0.92,4.11,4.06c-0.29,3.12-2.2,4.82-4.85,5.88
	C373.23,384.42,371.98,384.55,370.92,384.8z"/>
</svg>
